<?xml version="1.0" encoding="UTF-8"?>
<!-- Generator: Adobe Illustrator 16.0.0, SVG Export Plug-In . SVG Version: 6.00 Build 0)  -->
<!DOCTYPE svg PUBLIC "-//W3C//DTD SVG 1.1//EN" "http://www.w3.org/Graphics/SVG/1.1/DTD/svg11.dtd">
<svg version="1.1" id="Calque_1" xmlns="http://www.w3.org/2000/svg" xmlns:xlink="http://www.w3.org/1999/xlink" x="0px" y="0px" width="500.575px" height="500px" viewBox="0 0 500.575 500" enable-background="new 0 0 500.575 500" xml:space="preserve">
<g>
	<g>
		<path fill="none" stroke="#0235B0" stroke-miterlimit="10" d="M13.673,7.093c0-3.641-2.951-6.593-6.592-6.593    c-3.641,0-6.592,2.952-6.592,6.593s6.592,10.986,6.592,10.986S13.673,10.733,13.673,7.093z M5.432,6.543    c0-0.91,0.738-1.647,1.648-1.647c0.911,0,1.649,0.737,1.649,1.647S7.991,8.19,7.081,8.191C6.17,8.192,5.432,7.453,5.432,6.543z"/>
	</g>
</g>
<g>
	<g>
		<path fill="none" stroke="#FFFFFF" stroke-miterlimit="10" d="M263.698,7.093c0-3.641-2.951-6.593-6.592-6.593    s-6.591,2.952-6.591,6.593s6.591,10.986,6.591,10.986S263.698,10.733,263.698,7.093z M255.458,6.543    c0-0.91,0.737-1.647,1.647-1.647c0.911,0,1.649,0.737,1.649,1.647s-0.738,1.647-1.649,1.648    C256.195,8.192,255.458,7.453,255.458,6.543z"/>
	</g>
</g>
<g>
	<g>
		<path fill="none" stroke="#1C1C1B" stroke-miterlimit="10" d="M213.798,7.093c0-3.641-2.951-6.593-6.592-6.593    c-3.641,0-6.592,2.952-6.592,6.593s6.592,10.986,6.592,10.986S213.798,10.733,213.798,7.093z M205.557,6.543    c0-0.91,0.738-1.647,1.648-1.647c0.911,0,1.649,0.737,1.649,1.647s-0.738,1.647-1.649,1.648    C206.295,8.192,205.557,7.453,205.557,6.543z"/>
	</g>
</g>
<g>
	<g id="_x32__varka">
		<path fill="none" stroke="#1C1C1B" stroke-miterlimit="10" d="M56.53,1.902c2.975-2.242,7.221-1.646,9.464,1.33    c0.89,1.183,1.361,2.587,1.361,4.062c0,2.146-0.981,4.114-2.691,5.403c-2.977,2.242-7.223,1.646-9.465-1.33    c-0.891-1.182-1.36-2.586-1.36-4.062C53.838,5.162,54.818,3.193,56.53,1.902z"/>
	</g>
	<line fill="none" stroke="#1C1C1B" stroke-miterlimit="10" x1="55.967" y1="12.1" x2="50.266" y2="16.808"/>
</g>
<g>
	<line fill="none" stroke="#1C1C1B" stroke-miterlimit="10" x1="150.027" y1="53.873" x2="166.14" y2="53.873"/>
	<polyline fill="none" stroke="#1C1C1B" stroke-miterlimit="10" points="162.728,50.448 166.14,53.873 162.728,57.331  "/>
</g>
<g>
	<line fill="none" stroke="#FFFFFF" stroke-miterlimit="10" x1="166.666" y1="14.339" x2="169.035" y2="14.339"/>
	<line fill="none" stroke="#FFFFFF" stroke-miterlimit="10" x1="150.522" y1="14.339" x2="152.499" y2="14.339"/>
	<polygon fill="none" stroke="#FFFFFF" stroke-miterlimit="10" points="169.035,10.282 169.035,0.546 167.672,0.546 163.017,4.267     "/>
	<polygon fill="none" stroke="#FFFFFF" stroke-miterlimit="10" points="151.554,0.546 150.522,0.546 150.522,9.89 156.173,4.237     "/>
	<polyline fill="none" stroke="#FFFFFF" stroke-miterlimit="10" points="163.017,4.267 167.672,0.546 151.554,0.546 156.173,4.237     "/>
	<line fill="none" stroke="#FFFFFF" stroke-miterlimit="10" x1="150.522" y1="9.89" x2="150.522" y2="14.812"/>
	<line fill="none" stroke="#FFFFFF" stroke-miterlimit="10" x1="169.035" y1="10.282" x2="169.035" y2="14.812"/>
	<line fill="none" stroke="#FFFFFF" stroke-miterlimit="10" x1="152.499" y1="14.339" x2="166.666" y2="14.339"/>
	<polyline fill="none" stroke="#FFFFFF" stroke-miterlimit="10" points="169.035,10.282 163.017,4.267 159.613,6.986 156.173,4.237    150.522,9.89  "/>
	<polyline fill="none" stroke="#FFFFFF" stroke-miterlimit="10" points="156.173,4.237 159.613,6.986 163.017,4.267  "/>
</g>
<g>
	<line fill="none" stroke="#1C1C1B" stroke-miterlimit="10" x1="116.877" y1="14.339" x2="119.247" y2="14.339"/>
	<line fill="none" stroke="#1C1C1B" stroke-miterlimit="10" x1="100.734" y1="14.339" x2="102.71" y2="14.339"/>
	<polygon fill="none" stroke="#1C1C1B" stroke-miterlimit="10" points="119.247,10.282 119.247,0.546 117.883,0.546 113.229,4.267     "/>
	<polygon fill="none" stroke="#1C1C1B" stroke-miterlimit="10" points="101.765,0.546 100.734,0.546 100.734,9.89 106.384,4.237     "/>
	<polyline fill="none" stroke="#1C1C1B" stroke-miterlimit="10" points="113.229,4.267 117.883,0.546 101.765,0.546 106.384,4.237     "/>
	<line fill="none" stroke="#1C1C1B" stroke-miterlimit="10" x1="100.734" y1="9.89" x2="100.734" y2="14.812"/>
	<line fill="none" stroke="#1C1C1B" stroke-miterlimit="10" x1="119.247" y1="10.282" x2="119.247" y2="14.812"/>
	<line fill="none" stroke="#1C1C1B" stroke-miterlimit="10" x1="102.71" y1="14.339" x2="116.877" y2="14.339"/>
	<polyline fill="none" stroke="#1C1C1B" stroke-miterlimit="10" points="119.247,10.282 113.229,4.267 109.824,6.986 106.384,4.237    100.734,9.89  "/>
	<polyline fill="none" stroke="#1C1C1B" stroke-miterlimit="10" points="106.384,4.237 109.824,6.986 113.229,4.267  "/>
</g>
<path fill="none" stroke="#1C1C1B" stroke-miterlimit="10" d="M193.117,50.371l-4.242,4.243l-4.243-4.243"/>
<path fill="none" stroke="#FFFFFF" stroke-miterlimit="10" d="M0.363,57.619l6.936-6.938l6.937,6.938"/>
<path fill="none" stroke="#000000" stroke-miterlimit="10" d="M50.363,57.619l6.936-6.938l6.937,6.938"/>
<path fill="none" stroke="#000000" stroke-miterlimit="10" d="M64.236,150.431l-6.936,6.938l-6.937-6.938"/>
<path fill="none" stroke="#000000" stroke-miterlimit="10" d="M197.705,164.253l-6.938-6.936l6.938-6.937"/>
<path fill="none" stroke="#000000" stroke-miterlimit="10" d="M210.313,150.382l6.938,6.936l-6.938,6.937"/>
<polygon fill="#1C1C1B" points="222.288,53.027 219.288,53.027 219.288,50.027 217.288,50.027 217.288,53.027 214.288,53.027   214.288,55.027 217.288,55.027 217.288,58.027 219.288,58.027 219.288,55.027 222.288,55.027 "/>
<path fill="#1C1C1B" d="M30.126,115.103c-1.576,0-2.721-3.479-3.831-6.855c-1.338-4.061-2.721-8.262-5.348-8.262  c-2.471,0-3.842,4.545-5.297,9.371l-0.26,0.857c-1.375,1.928-2.808,3.648-5.144,3.648c-2.507,0-3.717-2.369-4.89-4.664  c-1.647-3.242-3.248-4.816-4.895-4.816c-0.256,0-0.457,0.23-0.457,0.525c0,0.293,0.201,0.523,0.457,0.523  c1.984,0,3.041,3.289,4.161,6.775c1.271,3.965,2.586,8.066,5.624,8.066c3.069,0,4.714-5.43,6.163-10.234  c1.323-1.879,2.577-3.645,4.536-3.645c2.107,0,3.384,2.459,4.62,4.836c1.722,3.312,3.213,4.922,4.559,4.922  c0.256,0,0.457-0.232,0.457-0.525C30.583,115.331,30.382,115.103,30.126,115.103z M10.249,118.985c-1.483,0-2.52-1.611-3.367-3.621  c0.849,1.209,1.907,2.023,3.367,2.023c1.22,0,2.197-0.658,2.993-1.57C12.4,117.558,11.418,118.985,10.249,118.985z M10.249,116.237  c-1.639,0-2.727-1.617-3.619-3.484c0.893,1.111,2.012,1.887,3.619,1.887c1.423,0,2.526-0.553,3.428-1.309  C12.727,114.876,11.638,116.237,10.249,116.237z M18.507,104.237c0.724-1.646,1.525-2.967,2.44-2.967  c1.208,0,2.165,1.596,2.993,3.59c-0.809-1.195-1.765-1.99-2.993-1.99C19.979,102.87,19.183,103.423,18.507,104.237z M20.947,104.021  c1.339,0,2.361,1.611,3.244,3.475c-0.865-1.107-1.89-1.875-3.244-1.875c-1.147,0-2.072,0.494-2.868,1.211  C18.904,105.358,19.833,104.021,20.947,104.021z"/>
<g>
	<g>
		<path fill="none" stroke="#1C1C1B" stroke-width="2" stroke-linecap="round" stroke-linejoin="round" stroke-miterlimit="10" d="    M76.14,102.702c0.472-0.16,0.727,0.094,0.566,0.566l-1.46,4.305c-0.16,0.471-0.047,1.184,0.251,1.582l2.718,3.643    c0.298,0.4,0.135,0.721-0.363,0.715l-4.545-0.059c-0.498-0.006-1.141,0.322-1.429,0.73l-2.624,3.711    c-0.288,0.406-0.645,0.35-0.792-0.125l-1.35-4.34c-0.147-0.477-0.657-0.986-1.134-1.135l-4.34-1.35    c-0.476-0.146-0.531-0.504-0.125-0.791l3.711-2.625c0.406-0.289,0.734-0.932,0.728-1.43l-0.058-4.543    c-0.007-0.498,0.314-0.662,0.714-0.363l3.644,2.717c0.399,0.299,1.111,0.412,1.583,0.252L76.14,102.702z"/>
	</g>
	
		<line fill="none" stroke="#1C1C1B" stroke-width="2" stroke-linecap="round" stroke-linejoin="round" stroke-miterlimit="10" x1="66.187" y1="112.714" x2="50.999" y2="127.901"/>
</g>
<g>
	<path fill="#1C1C1B" d="M124.693,99.997h-10.331c-0.232,0-0.449,0.09-0.612,0.254c-0.162,0.164-0.25,0.381-0.248,0.605v0.684   c0,0.475,0.386,0.859,0.859,0.859h0.583v19.879c0,2.527,2.055,4.584,4.581,4.584c2.528,0,4.584-2.057,4.584-4.584v-19.879h0.583   c0.504,0,0.899-0.377,0.899-0.859v-0.684C125.592,100.374,125.197,99.997,124.693,99.997z M117.027,102.562h5.003v9.326h-4.967   L117.027,102.562z M122.057,113.874v8.217c0,1.402-1.141,2.545-2.544,2.545c-1.402,0-2.542-1.143-2.542-2.545v-8.217H122.057z"/>
	<path fill="#1C1C1B" d="M111.277,99.997h-10.371c-0.23,0-0.446,0.09-0.608,0.252c-0.162,0.164-0.251,0.381-0.25,0.607v0.684   c0,0.475,0.386,0.859,0.86,0.859h0.581v19.879c0,2.527,2.073,4.584,4.622,4.584c2.528,0,4.584-2.057,4.584-4.584v-19.879h0.581   c0.473,0,0.858-0.385,0.858-0.859v-0.684C112.135,100.382,111.75,99.997,111.277,99.997z M103.608,116.491v-13.93h4.966v13.93   H103.608z M108.591,118.618v3.504c0,1.404-1.141,2.545-2.543,2.545c-1.403,0-2.544-1.141-2.544-2.545v-3.504H108.591z"/>
</g>
<g>
	<polygon fill="#1C1C1B" points="21.414,160.015 18.082,160.015 18.082,156.681 16.082,156.681 16.082,160.015 12.749,160.015    12.749,162.015 16.082,162.015 16.082,165.347 18.082,165.347 18.082,162.015 21.414,162.015  "/>
	<path fill="#1C1C1B" d="M25.654,154.415c-2.137-2.834-5.406-4.459-8.969-4.459c-2.449,0-4.777,0.779-6.733,2.252   c-2.838,2.139-4.466,5.408-4.466,8.967c0,2.449,0.78,4.779,2.257,6.738c0.241,0.32,0.501,0.619,0.77,0.908l-8.507,7.027   l0.637,0.771l8.596-7.102c2.035,1.826,4.658,2.854,7.474,2.854c2.45,0,4.779-0.779,6.736-2.254   c2.837-2.139,4.465-5.406,4.465-8.963C27.914,158.708,27.132,156.378,25.654,154.415z M22.847,169.321   c-1.782,1.342-3.904,2.053-6.135,2.053c-3.246,0-6.224-1.48-8.17-4.062c-1.345-1.783-2.056-3.906-2.056-6.137   c0-3.242,1.482-6.221,4.067-8.168c1.781-1.342,3.901-2.051,6.131-2.051c3.247,0,6.225,1.48,8.17,4.061   c1.346,1.789,2.058,3.912,2.058,6.141C26.914,164.397,25.431,167.372,22.847,169.321z"/>
</g>
<polygon fill="#1C1C1B" points="132.75,151.628 131.147,150.021 116.424,164.813 101.657,150.015 100.033,151.642 116.403,168.054   116.407,168.05 116.413,168.056 "/>
<polygon fill="#1C1C1B" points="164.51,151.175 163.395,150.021 157.253,156.37 151.112,150.021 149.996,151.175 156.136,157.524   149.997,163.874 151.112,165.028 157.253,158.679 163.395,165.028 164.51,163.874 158.369,157.524 "/>
<path fill="#1C1C1B" d="M175.112,103.101v-3.049h-1.665v3.049h-5.007v-3.049h-1.664v3.049h-4.616v-3.049h-1.664v3.049h-4.963v-3.049  h-1.664v3.049h-3.85v24.801h28.805v-24.801H175.112z M153.869,105.151v1.02h1.664v-1.02h4.963v1.02h1.664v-1.02h4.616v1.02h1.664  v-1.02h5.007v1.02h1.665v-1.02h1.661v3.871H152.07v-3.871H153.869z M152.07,125.851v-15.463h24.703v15.463H152.07z"/>
<g>
	<polygon fill="#1C1C1B" points="210.467,121.851 209.125,120.368 213.506,116.399 213.506,108.526 215.506,108.526    215.506,117.286  "/>
	<path fill="#1C1C1B" d="M214.663,129.839c-8.026,0-14.557-6.529-14.557-14.557s6.53-14.557,14.557-14.557   c8.027,0,14.557,6.529,14.557,14.557S222.689,129.839,214.663,129.839z M214.663,102.856c-6.851,0-12.424,5.574-12.424,12.424   s5.573,12.424,12.424,12.424c6.851,0,12.424-5.574,12.424-12.424S221.513,102.856,214.663,102.856z"/>
</g>
<g>
	<path fill="none" stroke="#1C1C1B" stroke-width="2" stroke-miterlimit="10" d="M250.902,126.315l19.759-25.84"/>
	<path fill="none" stroke="#1C1C1B" stroke-width="2" stroke-miterlimit="10" d="M253.942,103.517c1.68,0,3.04,1.359,3.04,3.039   s-1.36,3.041-3.04,3.041s-3.04-1.361-3.04-3.041S252.262,103.517,253.942,103.517z"/>
	<path fill="none" stroke="#1C1C1B" stroke-width="2" stroke-miterlimit="10" d="M266.102,118.714c1.679,0,3.04,1.361,3.04,3.041   s-1.361,3.039-3.04,3.039c-1.68,0-3.04-1.359-3.04-3.039S264.422,118.714,266.102,118.714z"/>
</g>
<g>
	<path fill="none" stroke="#1C1C1B" stroke-miterlimit="10" d="M307.93,0.747l5.076,7.548v8.187l-8.018,2.4   c0,0-1.287,0.516-1.925-1.471c-0.638-1.984-3.058-9.605-2.052-10.048c0,0,1.142-1.029,6.533-0.368c0,0,0.988-0.44,0.107-1.936   C306.77,3.565,305.407,0.846,307.93,0.747z"/>
	<rect x="315.006" y="9.026" fill="none" stroke="#1C1C1B" stroke-miterlimit="10" width="5" height="7"/>
	<circle fill="#1C1C1B" cx="317.977" cy="14.031" r="0.809"/>
</g>
<polygon fill="#FFFFFF" points="9.008,267.929 9.888,267.05 1.782,258.983 9.893,250.892 9,250.001 0.007,258.972 0.009,258.974   0.006,258.976 "/>
<polygon fill="#FFFFFF" points="50.904,250.003 50.024,250.88 58.13,258.948 50.021,267.04 50.914,267.931 59.905,258.96   59.903,258.958 59.906,258.954 "/>
<polygon fill="#1C1C1B" points="100.423,249.917 99.978,250.358 109.625,258.938 99.978,267.54 100.423,267.987 110.519,258.938   110.517,258.938 110.519,258.938 "/>
<polygon fill="#1C1C1B" points="168.119,250.405 167.678,249.958 159.098,259.607 150.496,249.958 150.049,250.405 159.098,260.5   159.098,260.498 159.098,260.5 "/>
<circle cx="109.97" cy="59.975" r="10"/>
<polygon fill="#FFFFFF" points="113.47,59.475 110.47,59.475 110.47,56.475 109.47,56.475 109.47,59.475 106.47,59.475   106.47,60.475 109.47,60.475 109.47,63.475 110.47,63.475 110.47,60.475 113.47,60.475 "/>
<g id="icon-location">
	<path fill="none" stroke="#000000" stroke-width="2" stroke-miterlimit="10" d="M145.071,323.103   c0-12.172-9.869-22.045-22.045-22.045c-12.178,0-22.05,9.873-22.05,22.045c0,12.176,22.05,36.744,22.05,36.744   S145.071,335.278,145.071,323.103z M117.514,321.267c0-3.047,2.47-5.512,5.513-5.512c3.044,0,5.512,2.465,5.512,5.512   c0,3.045-2.469,5.512-5.512,5.514C119.983,326.78,117.514,324.312,117.514,321.267z"/>
	<circle fill="#010202" cx="159.869" cy="317.853" r="0.67"/>
	<circle fill="#010202" cx="171.256" cy="317.853" r="0.67"/>
	<path fill="#010202" d="M149.151,317.183c0.368,0,0.671,0.3,0.671,0.67c0,0.369-0.303,0.67-0.671,0.67   c-0.369,0-0.672-0.301-0.672-0.67C148.481,317.482,148.782,317.183,149.151,317.183z"/>
	<rect x="170.587" y="309.145" fill="#010202" width="1.342" height="5.358"/>
	<rect x="159.199" y="309.145" fill="#010202" width="1.339" height="5.358"/>
	<rect x="148.48" y="309.145" fill="#010202" width="1.343" height="5.358"/>
	<rect x="145.404" y="321.2" fill="#010202" width="31.881" height="1.342"/>
	<rect x="141.113" y="335.542" fill="#010202" width="0.67" height="15.133"/>
	<rect x="149.82" y="322.542" fill="#010202" width="0.67" height="28.133"/>
	<rect x="158.528" y="322.542" fill="#010202" width="0.671" height="28.133"/>
	<rect x="167.237" y="322.542" fill="#010202" width="0.67" height="28.133"/>
	<rect x="142.575" y="331.249" fill="#010202" width="34.039" height="0.67"/>
	<rect x="136.575" y="341.297" fill="#010202" width="40.039" height="0.671"/>
	<polyline fill="none" stroke="#000000" stroke-width="1.8862" stroke-miterlimit="10" points="141.68,312.347 177.263,312.347    177.263,351.181 130.096,351.181  "/>
</g>
<g>
	<path fill="none" stroke="#1D1D1B" stroke-width="2" stroke-miterlimit="10" d="M1.015,306.524c0-3.312,2.687-5.5,6-5.5h36   c3.313,0,6,2.688,6,6v54.25c0,3.314-2.687,6-6,6h-36c-3.313,0-6-2.686-6-6v-55"/>
	<line fill="none" stroke="#1D1D1B" stroke-miterlimit="10" x1="0.515" y1="359.025" x2="49.265" y2="359.025"/>
	<circle fill="none" stroke="#1D1D1B" stroke-miterlimit="10" cx="25.14" cy="362.9" r="1.375"/>
	<path fill="#FFFFFF" stroke="#1D1D1B" stroke-width="1.5" stroke-miterlimit="10" d="M39.14,338.612   c0-1.59,1.084-2.639,2.422-2.639h14.531c1.338,0,2.422,1.289,2.422,2.88v26.042c0,1.59-1.084,2.881-2.422,2.881H41.562   c-1.338,0-2.422-1.291-2.422-2.881v-26.402"/>
	<line fill="none" stroke="#1D1D1B" stroke-miterlimit="10" x1="39.14" y1="362.025" x2="58.515" y2="362.025"/>
	<circle fill="none" stroke="#1D1D1B" stroke-width="0.6591" stroke-miterlimit="10" cx="48.827" cy="364.905" r="0.906"/>
</g>
<g>
	<g>
		<path d="M312.047,101c6.074,0,11,4.925,11,11s-4.926,11-11,11c-6.076,0-11-4.925-11-11S305.971,101,312.047,101 M312.047,100    c-6.617,0-12,5.383-12,12s5.383,12,12,12s12-5.383,12-12S318.665,100,312.047,100L312.047,100z"/>
	</g>
	<polyline fill="none" stroke="#000000" stroke-width="2" stroke-miterlimit="10" points="324.954,103.188 311.547,116.594    304.625,109.672  "/>
</g>
<g>
	<g>
		<g>
			<path fill="#A2A2A2" d="M7.5,201c3.59,0,6.5,2.91,6.5,6.5c0,3.589-2.91,6.5-6.5,6.5S1,211.09,1,207.5C1,203.91,3.91,201,7.5,201      M7.5,200c-4.136,0-7.5,3.365-7.5,7.5c0,4.135,3.364,7.5,7.5,7.5c4.135,0,7.5-3.364,7.5-7.5C15,203.365,11.635,200,7.5,200     L7.5,200z"/>
		</g>
	</g>
	<polyline fill="none" stroke="#A2A2A2" stroke-miterlimit="10" points="7.438,203.781 7.438,208.502 5.438,210.503  "/>
</g>
<polyline fill="none" stroke="#000000" stroke-miterlimit="10" points="250.378,53.234 253.816,56.734 259.712,50.297 "/>
<path fill="none" stroke="#FFFFFF" stroke-miterlimit="10" d="M293.495,300.463c23.748,0,43,19.248,43,42.998  c0,23.748-19.252,43-43,43s-43.001-19.252-43.001-43C250.493,319.711,269.747,300.463,293.495,300.463z"/>
<path fill="#FFFFFF" d="M286.897,331.462l19.195,12l-19.195,11.999V331.462z"/>
<g>
	<path fill="none" stroke="#000000" stroke-miterlimit="10" d="M381.788,355h3.771c0.449,0,0.729-0.724,0.729-0.231v3.11   c0,0.491-0.279,1.121-0.729,1.121h-3.771"/>
	<path fill="none" stroke="#000000" stroke-miterlimit="10" d="M385.303,355.032c0.346-0.115,0.758-0.701,0.758-1.96   s-0.321-21.369-0.321-25.983s1.548-6.049,1.548-6.049V319h-12v2.04c0,0,0.929-0.115,1.446,6.049   c0.287,3.395,0.38,11.857,0.575,17.943"/>
	<path fill="none" stroke="#000000" stroke-linejoin="round" stroke-miterlimit="10" d="M359.241,357.742l-4.784-0.052   c-2.727-0.359-3.169-2.005-3.169-2.005s0-16.782,0-20.583s0.723-11.332,1.369-13.125c0.645-1.793,1.439-2.366,3.664-5.953   c2.223-3.586,1.757-6.74,1.685-7.242s-0.718-0.432-0.718-0.432s0-5.162,0-6.167c0-1.004,3.973-1.167,5.002-1.167   s4.998,0.163,4.998,1.167c0,1.005,0,6.167,0,6.167s-0.269-0.07-0.341,0.432s-0.349,3.656,1.874,7.242   c2.225,3.587,2.235,4.16,2.882,5.953c0.645,1.793,0.585,9.324,0.585,13.125c0,1.535,0,9.397,0,9.397"/>
	<path fill="none" stroke="#000000" stroke-miterlimit="10" d="M381.288,358.928c0,2.989-1.195,6.072-3.459,6.072h-14.205   c-2.264,0-4.336-3.083-4.336-6.072v-9.741c0-2.988,2.072-4.187,4.336-4.187h14.205c2.264,0,3.459,1.198,3.459,4.187V358.928z"/>
	<line fill="none" stroke="#000000" stroke-miterlimit="10" x1="358.788" y1="350" x2="381.788" y2="350"/>
</g>
<path fill="#FFFFFF" d="M56.373,213.188c-0.526,2.757-1.161,5.399-3.068,6.778c-0.591-4.171,0.861-7.307,1.536-10.627  c-1.155-1.928,0.143-5.816,2.555-4.854c2.981,1.179-2.58,7.181,1.157,7.923c3.903,0.794,5.493-6.744,3.07-9.213  c-3.489-3.536-10.167-0.076-9.345,5c0.197,1.234,1.481,1.61,0.513,3.331c-2.237-0.498-2.896-2.261-2.824-4.62  c0.146-3.847,3.464-6.53,6.794-6.911c4.205-0.467,8.159,1.548,8.697,5.506c0.616,4.472-1.894,9.306-6.4,8.962  C57.85,214.367,57.327,213.767,56.373,213.188z"/>
<path fill="#FFFFFF" d="M109.184,206.967h-3.324l0.006-2.276c0-1.04,0.143-1.902,1.9-1.902h1.443v-2.883h-2.559  c-3.095,0-4.416,1.321-4.416,4.416v2.645h-2.229v2.883h2.229v7.141h3.625v-7.141h3.018L109.184,206.967z"/>
<g>
	<path fill="none" stroke="#000000" stroke-miterlimit="10" d="M237.939,164.253l-6.938-6.936l6.938-6.937"/>
	<line fill="none" stroke="#000000" stroke-miterlimit="10" x1="230.506" y1="150.031" x2="230.506" y2="164.609"/>
</g>
<g>
	<path fill="none" stroke="#000000" stroke-miterlimit="10" d="M250.336,150.387l6.938,6.936l-6.938,6.937"/>
	<line fill="none" stroke="#000000" stroke-miterlimit="10" x1="257.768" y1="164.609" x2="257.768" y2="150.031"/>
</g>
</svg>